<?xml version="1.0" encoding="UTF-8" standalone="no"?>
<svg
        width="210mm"
        height="210mm"
        viewBox="0 0 210 297"
        version="1.1"
        id="svg1"
        xmlns="http://www.w3.org/2000/svg">

    <path
            d="m 39.737113,149.93193 v 2.86495 h -7.82588 v -3.00138 h 2.083589 v -12.7 h -2.083589 v -2.98896 h 6.25078 v 15.82539 z m 0.12402,-10.16993 h 7.87549 v 2.6417 h -1.28984 l -3.84473,3.26182 3.48506,4.12998 h 1.79834 v 3.00137 h -4.14238 l -5.55625,-6.8833 4.41523,-3.63389 h -2.74092 z m 22.27461,6.51123 q 0,1.94717 -0.91777,3.50987 -0.91777,1.56269 -2.48047,2.44326 -1.5627,0.88057 -3.43545,0.88057 -1.98437,0 -3.54707,-0.88057 -1.56269,-0.88057 -2.44326,-2.44326 -0.86817,-1.5627 -0.86817,-3.50987 0,-1.93476 0.89297,-3.48505 0.90537,-1.5503 2.48047,-2.43086 1.5751,-0.89297 3.48506,-0.89297 1.94717,0 3.50986,0.89297 1.5627,0.88056 2.44327,2.43086 0.88056,1.55029 0.88056,3.48505 z m -6.85849,3.59668 q 1.21543,0 1.89755,-0.94257 0.69454,-0.95498 0.69454,-2.72852 0,-1.66191 -0.69454,-2.59209 -0.68212,-0.94258 -1.92236,-0.94258 -1.25264,0 -1.89756,0.93018 -0.64492,0.91777 -0.64492,2.77812 0,1.5751 0.69453,2.54248 0.70694,0.95498 1.87276,0.95498 z m 22.42344,-8.508 q 2.54248,-1.77354 5.25859,-1.77354 1.5999,0 2.55488,0.4961 0.95498,0.49609 1.40147,1.6123 0.44648,1.11621 0.44648,3.00137 v 5.09736 h 2.15801 v 3.00137 h -6.32519 v -7.70186 q 0,-1.94717 -1.76114,-1.94717 -1.26503,0 -2.98896,0.85577 v 5.79189 h 2.1332 v 3.00137 h -6.30039 v -7.56542 q 0,-2.0836 -1.69912,-2.0836 -1.20303,0 -3.00137,0.85577 v 5.79189 h 2.13321 v 3.00136 h -8.433601 v -3.00136 h 2.13321 v -6.98252 h -2.13321 v -3.05098 h 6.30039 v 1.09141 q 2.05879,-1.26504 4.2168,-1.26504 2.517681,0 3.906741,1.77353 z m 27.334757,0 q 2.54248,-1.77354 5.25859,-1.77354 1.5999,0 2.55489,0.4961 0.95498,0.49609 1.40145,1.6123 0.44649,1.11621 0.44649,3.00137 v 5.09736 h 2.15801 v 3.00137 h -6.32521 v -7.70186 q 0,-1.94717 -1.76112,-1.94717 -1.26504,0 -2.98897,0.85577 v 5.79189 h 2.1332 v 3.00137 h -6.30038 v -7.56542 q 0,-2.0836 -1.699117,-2.0836 -1.20303,0 -3.00137,0.85577 v 5.79189 h 2.1332 v 3.00136 h -8.4336 v -3.00136 h 2.133209 v -6.98252 h -2.133209 v -3.05098 h 6.300399 v 1.09141 q 2.05879,-1.26504 4.216808,-1.26504 2.51768,0 3.90673,1.77353 z m 19.26084,8.21035 q 1.0666,0 2.30683,-0.94258 v -5.8167 h -1.99678 V 139.762 h 6.13917 v 10.0335 h 2.13319 v 3.00138 h -6.27558 v -1.09141 q -1.94717,1.28985 -3.78271,1.28985 -1.89756,0 -2.95177,-1.05421 -1.0542,-1.05419 -1.0542,-2.90215 v -6.22598 h -1.95956 V 139.762 h 6.07715 v 8.21036 q 0,0.91777 0.28525,1.26503 0.29766,0.33487 1.07901,0.33487 z m 23.94892,-5.08496 v 5.3082 h 1.95958 v 3.00138 h -6.12676 v -7.97472 q 0,-0.91777 -0.28526,-1.32705 -0.27285,-0.42168 -0.93017,-0.42168 -1.19063,0 -2.39365,0.85576 v 5.86631 h 2.03398 v 3.00138 h -8.14834 v -3.00138 h 1.98438 v -6.98252 h -1.98438 V 139.762 h 6.11436 v 1.22784 q 1.86035,-1.40147 3.81992,-1.40147 1.94717,0 2.95176,1.24024 1.00459,1.22783 1.00458,3.65869 z m 9.85987,-8.4336 q 0,0.99219 -0.68214,1.64952 -0.66971,0.64492 -1.59989,0.64492 -0.94258,0 -1.62471,-0.66973 -0.66972,-0.68213 -0.66972,-1.62471 0,-0.93017 0.66972,-1.5999 0.68213,-0.68213 1.62471,-0.68213 0.93018,0 1.59989,0.68213 0.68214,0.66973 0.68214,1.5999 z m 1.67431,13.7418 v 3.00138 h -8.04911 v -3.00138 h 1.98437 v -6.98252 h -1.98437 V 139.762 h 6.11435 v 10.0335 z m 9.40098,-9.57461 V 139.762 h 2.96416 v 3.81993 h -2.96416 q -0.38448,-1.37666 -2.85255,-1.37666 -1.77353,0 -1.77353,0.99218 0,0.43409 0.4713,0.64493 0.47129,0.21084 1.37666,0.34726 2.54248,0.32246 4.00594,0.93018 1.46349,0.59531 2.0464,1.48828 0.58291,0.88056 0.58291,2.1456 0,2.0588 -1.41387,3.21222 -1.40146,1.14102 -3.81992,1.14102 -2.35644,0 -3.1998,-0.94258 v 0.63252 h -3.02618 v -4.48966 h 3.02618 q 0.12401,0.93017 0.89297,1.46348 0.78134,0.5333 1.92235,0.5333 1.11622,0 1.64952,-0.24805 0.53329,-0.26045 0.53329,-0.89297 0,-0.43408 -0.22324,-0.66973 -0.22324,-0.24804 -0.86816,-0.43408 -0.63252,-0.18603 -1.94716,-0.42168 -2.92697,-0.45888 -4.21681,-1.47588 -1.27744,-1.02939 -1.27744,-2.76572 0,-1.77353 1.32705,-2.79052 1.33945,-1.01699 3.52227,-1.01699 1.76113,0 3.26182,0.63251 z m 13.22089,-0.45889 v 3.05098 h -2.40605 v 5.69268 q 0,0.60771 0.23564,0.91777 0.23566,0.29766 0.88058,0.29766 0.5333,0 1.28983,-0.27286 v 2.88976 q -1.67431,0.65733 -3.15019,0.65733 -1.69912,0 -2.55489,-0.85577 -0.84335,-0.86817 -0.84335,-2.44327 v -6.8833 h -1.64952 V 139.762 h 1.64952 v -2.02158 l 4.14238,-2.97656 v 4.99814 z"
            id="text1"
            style="fill:#ffffff;fill-rule:nonzero;stroke-width:0.838376;font-weight:bold;font-size:60px;font-family:Rockwell;-inkscape-font-specification:'Rockwell Bold';stroke-width:0.264583"
            aria-label="kommunist" />
</svg>